<mxfile host="app.diagrams.net" modified="2021-08-12T05:52:35.878Z" agent="5.0 (Windows NT 10.0; Win64; x64) AppleWebKit/537.36 (KHTML, like Gecko) Chrome/92.0.4515.131 Safari/537.36" etag="oRVo9x1bMhjBnduMt6A_" version="14.9.3" type="github">
  <diagram id="prtHgNgQTEPvFCAcTncT" name="Page-1">
    <mxGraphModel dx="1422" dy="794" grid="1" gridSize="10" guides="1" tooltips="1" connect="1" arrows="1" fold="1" page="1" pageScale="1" pageWidth="827" pageHeight="1169" math="0" shadow="0">
      <root>
        <mxCell id="0" />
        <mxCell id="1" parent="0" />
        <mxCell id="o16U43Y2JbpSZjpaEEsM-1" value="" style="rounded=1;whiteSpace=wrap;html=1;" vertex="1" parent="1">
          <mxGeometry x="50" y="130" width="370" height="470" as="geometry" />
        </mxCell>
        <mxCell id="o16U43Y2JbpSZjpaEEsM-2" value="&lt;font style=&quot;font-size: 18px&quot;&gt;Heap&lt;/font&gt;" style="rounded=1;whiteSpace=wrap;html=1;" vertex="1" parent="1">
          <mxGeometry x="100" y="180" width="120" height="60" as="geometry" />
        </mxCell>
        <mxCell id="o16U43Y2JbpSZjpaEEsM-3" value="&lt;font style=&quot;font-size: 18px&quot;&gt;Perm&lt;/font&gt;" style="rounded=1;whiteSpace=wrap;html=1;" vertex="1" parent="1">
          <mxGeometry x="240" y="180" width="120" height="60" as="geometry" />
        </mxCell>
        <mxCell id="o16U43Y2JbpSZjpaEEsM-4" value="" style="rounded=1;whiteSpace=wrap;html=1;" vertex="1" parent="1">
          <mxGeometry x="138" y="260" width="206" height="230" as="geometry" />
        </mxCell>
        <mxCell id="o16U43Y2JbpSZjpaEEsM-5" value="&lt;font style=&quot;font-size: 17px&quot;&gt;VM Stack&lt;/font&gt;" style="rounded=1;whiteSpace=wrap;html=1;" vertex="1" parent="1">
          <mxGeometry x="181" y="280" width="120" height="60" as="geometry" />
        </mxCell>
        <mxCell id="o16U43Y2JbpSZjpaEEsM-6" value="&lt;font style=&quot;font-size: 17px&quot;&gt;Native Stack&lt;br&gt;&lt;/font&gt;" style="rounded=1;whiteSpace=wrap;html=1;" vertex="1" parent="1">
          <mxGeometry x="181" y="345" width="120" height="60" as="geometry" />
        </mxCell>
        <mxCell id="o16U43Y2JbpSZjpaEEsM-7" value="&lt;font style=&quot;font-size: 17px&quot;&gt;Program Count Register&lt;/font&gt;" style="rounded=1;whiteSpace=wrap;html=1;" vertex="1" parent="1">
          <mxGeometry x="181" y="410" width="120" height="60" as="geometry" />
        </mxCell>
        <mxCell id="o16U43Y2JbpSZjpaEEsM-8" value="&lt;font style=&quot;font-size: 18px&quot;&gt;Direct Memory&lt;br&gt;&lt;/font&gt;" style="rounded=1;whiteSpace=wrap;html=1;" vertex="1" parent="1">
          <mxGeometry x="114" y="510" width="230" height="60" as="geometry" />
        </mxCell>
        <mxCell id="o16U43Y2JbpSZjpaEEsM-9" value="" style="rounded=1;whiteSpace=wrap;html=1;" vertex="1" parent="1">
          <mxGeometry x="430" y="130" width="370" height="470" as="geometry" />
        </mxCell>
        <mxCell id="o16U43Y2JbpSZjpaEEsM-10" value="&lt;font style=&quot;font-size: 18px&quot;&gt;Heap&lt;/font&gt;" style="rounded=1;whiteSpace=wrap;html=1;" vertex="1" parent="1">
          <mxGeometry x="550" y="180" width="120" height="60" as="geometry" />
        </mxCell>
        <mxCell id="o16U43Y2JbpSZjpaEEsM-12" value="" style="rounded=1;whiteSpace=wrap;html=1;" vertex="1" parent="1">
          <mxGeometry x="518" y="260" width="206" height="230" as="geometry" />
        </mxCell>
        <mxCell id="o16U43Y2JbpSZjpaEEsM-13" value="&lt;font style=&quot;font-size: 17px&quot;&gt;VM Stack&lt;/font&gt;" style="rounded=1;whiteSpace=wrap;html=1;" vertex="1" parent="1">
          <mxGeometry x="561" y="280" width="120" height="60" as="geometry" />
        </mxCell>
        <mxCell id="o16U43Y2JbpSZjpaEEsM-14" value="&lt;font style=&quot;font-size: 17px&quot;&gt;Native Stack&lt;br&gt;&lt;/font&gt;" style="rounded=1;whiteSpace=wrap;html=1;" vertex="1" parent="1">
          <mxGeometry x="561" y="345" width="120" height="60" as="geometry" />
        </mxCell>
        <mxCell id="o16U43Y2JbpSZjpaEEsM-15" value="&lt;font style=&quot;font-size: 17px&quot;&gt;Program Count Register&lt;/font&gt;" style="rounded=1;whiteSpace=wrap;html=1;" vertex="1" parent="1">
          <mxGeometry x="561" y="410" width="120" height="60" as="geometry" />
        </mxCell>
        <mxCell id="o16U43Y2JbpSZjpaEEsM-16" value="&lt;font style=&quot;font-size: 18px&quot;&gt;Direct Memory &amp;amp; Perm&lt;br&gt;&lt;/font&gt;" style="rounded=1;whiteSpace=wrap;html=1;" vertex="1" parent="1">
          <mxGeometry x="470" y="510" width="290" height="60" as="geometry" />
        </mxCell>
        <mxCell id="o16U43Y2JbpSZjpaEEsM-17" value="&lt;font style=&quot;font-size: 18px&quot;&gt;JDK1.6&lt;/font&gt;" style="text;html=1;strokeColor=none;fillColor=none;align=center;verticalAlign=middle;whiteSpace=wrap;rounded=0;" vertex="1" parent="1">
          <mxGeometry x="209" y="140" width="40" height="20" as="geometry" />
        </mxCell>
        <mxCell id="o16U43Y2JbpSZjpaEEsM-18" value="&lt;font style=&quot;font-size: 18px&quot;&gt;JDK1.8&lt;br&gt;&lt;/font&gt;" style="text;html=1;strokeColor=none;fillColor=none;align=center;verticalAlign=middle;whiteSpace=wrap;rounded=0;" vertex="1" parent="1">
          <mxGeometry x="601" y="140" width="40" height="20" as="geometry" />
        </mxCell>
      </root>
    </mxGraphModel>
  </diagram>
</mxfile>
